<svg width="224" height="90" viewBox="0 0 224 90" fill="none" xmlns="http://www.w3.org/2000/svg">
<path d="M20.1212 69.9094C20.0358 69.7001 19.8678 69.5521 19.6158 69.4681C19.3625 69.3827 19.1305 69.3214 18.9212 69.2774C18.4145 69.1521 17.8878 69.1001 17.3412 69.1201C16.7918 69.1414 16.2665 69.1934 15.7598 69.2774C16.6452 69.9947 17.6558 70.3747 18.7932 70.4161C18.8358 70.4161 18.9412 70.4054 19.1105 70.3827C19.2785 70.3627 19.4465 70.3307 19.6158 70.2894C19.7838 70.2481 19.9318 70.1947 20.0585 70.1307C20.1838 70.0681 20.2052 69.9947 20.1212 69.9094ZM26.9465 78.3787C27.1558 78.0841 27.4292 78.0094 27.7678 78.1574C28.1038 78.3054 28.2518 78.5481 28.2092 78.8827C28.1678 79.0947 28.0932 79.2641 27.9878 79.3881C27.8825 79.5161 27.7878 79.6414 27.7038 79.7694L27.0092 80.5894C26.0385 81.7267 25.0278 82.7387 23.9758 83.6227C22.8798 84.5494 21.7425 85.3921 20.5638 86.1507C19.3838 86.9094 18.1398 87.5841 16.8345 88.1721C15.3598 88.8054 13.8438 89.2894 12.2852 89.6267C10.7265 89.9627 9.14648 90.0481 7.54515 89.8801C6.70248 89.7934 5.89182 89.6147 5.11315 89.3414C4.33315 89.0681 3.60649 88.6787 2.93182 88.1721C2.25849 87.6667 1.69982 87.0561 1.25848 86.3401C0.815818 85.6241 0.489152 84.8454 0.278485 84.0014C-0.185515 82.1054 -0.0695144 80.2534 0.625152 78.4401C1.32115 76.6307 2.34249 75.0494 3.69049 73.7014C4.95449 72.3547 6.39715 71.2481 8.01982 70.3827C9.64115 69.5214 11.3372 68.8574 13.1065 68.3934C11.6745 66.2041 10.9998 63.7801 11.0852 61.1267C11.1252 59.3561 11.5052 57.6721 12.2225 56.0707C12.9372 54.4694 14.0745 53.2067 15.6345 52.2787C16.4345 51.8161 17.2772 51.5001 18.1625 51.3307C19.0465 51.1627 19.9318 51.1214 20.8158 51.2054C21.6585 51.2894 22.4798 51.4481 23.2812 51.6787C24.0798 51.9107 24.7972 52.3001 25.4292 52.8481C25.7238 53.1014 25.9865 53.3961 26.2185 53.7334C26.4505 54.0707 26.6078 54.4281 26.6932 54.8067C26.7772 55.0187 26.8198 55.2174 26.8198 55.4081C26.8198 55.5974 26.7345 55.7547 26.5665 55.8814C26.1878 56.1761 25.8492 56.1561 25.5558 55.8187C25.4292 55.6921 25.3545 55.5334 25.3345 55.3441C25.3132 55.1547 25.2598 54.9761 25.1772 54.8067C25.0505 54.4694 24.8172 54.1747 24.4812 53.9227C23.8492 53.4161 23.0918 53.0587 22.2065 52.8481C21.3638 52.6374 20.5105 52.5534 19.6478 52.5947C18.7838 52.6374 17.9505 52.8267 17.1505 53.1641C16.3078 53.5014 15.5812 53.9854 14.9705 54.6174C14.3598 55.2494 13.8652 55.9654 13.4852 56.7667C12.6852 58.4094 12.3585 60.2201 12.5065 62.2001C12.6532 64.1814 13.2105 65.9507 14.1812 67.5081C14.2652 67.5947 14.3385 67.6987 14.4012 67.8254C14.4652 67.9507 14.5598 68.0134 14.6865 68.0134C15.0225 67.9307 15.2758 67.8881 15.4452 67.8881C15.6545 67.8041 15.8865 67.7614 16.1398 67.7614C16.3932 67.7614 16.6238 67.7401 16.8345 67.6987C17.2558 67.6987 17.6558 67.7094 18.0358 67.7294C18.4145 67.7521 18.7932 67.8041 19.1732 67.8881C19.6785 67.9721 20.1838 68.1721 20.6892 68.4881C21.1958 68.8041 21.4892 69.2574 21.5745 69.8467C21.6158 70.3107 21.5105 70.6787 21.2585 70.9534C21.0065 71.2267 20.6785 71.4281 20.2785 71.5521C19.8785 71.6801 19.4572 71.7534 19.0145 71.7734C18.5732 71.7961 18.1825 71.7841 17.8452 71.7427C17.3825 71.6587 16.9292 71.5321 16.4878 71.3627C16.0452 71.1961 15.6345 70.9427 15.2558 70.6041C14.8758 70.3947 14.4972 70.0574 14.1185 69.5947L12.7278 69.9734C11.0412 70.4801 9.41982 71.2067 7.86115 72.1547C6.30249 73.1027 4.95449 74.2507 3.81715 75.5974C3.22649 76.3147 2.73182 77.0827 2.33182 77.9041C1.93049 78.7241 1.66915 79.6001 1.54249 80.5267C1.37315 81.4947 1.40515 82.4854 1.63715 83.4961C1.86782 84.5067 2.30115 85.3921 2.93182 86.1507C3.81715 87.2467 4.95449 87.9414 6.34515 88.2361C7.73449 88.5321 9.10382 88.5947 10.4532 88.4254C11.9692 88.2147 13.4318 87.8574 14.8438 87.3507C16.2558 86.8454 17.6145 86.2147 18.9212 85.4547C20.4785 84.5707 21.9318 83.5401 23.2812 82.3587C24.6278 81.1801 25.8492 79.8521 26.9465 78.3787Z" fill="white"/>
<path d="M43.6914 55.5018C43.8594 55.1658 44.0074 54.7231 44.1341 54.1751C44.2607 53.6284 44.1754 53.1858 43.8821 52.8484C43.7967 52.7218 43.6701 52.6578 43.5021 52.6578C43.3327 52.6578 43.1861 52.6804 43.0594 52.7218C42.4687 52.9738 41.9634 53.3858 41.5434 53.9538C41.1221 54.5231 40.7421 55.0818 40.4061 55.6284C40.0261 56.2191 39.6794 56.8191 39.3621 57.4298C39.0474 58.0404 38.7407 58.6618 38.4461 59.2938C37.9821 60.2204 37.5407 61.1378 37.1194 62.0418C36.6981 62.9484 36.2981 63.8644 35.9181 64.7924L34.0234 69.5311C34.9914 68.2258 35.9607 66.9298 36.9301 65.6431C37.8981 64.3604 38.8461 63.0644 39.7741 61.7578C40.4901 60.7471 41.1847 59.7258 41.8594 58.6938C42.5327 57.6618 43.1434 56.5978 43.6914 55.5018ZM44.3861 51.4578C45.1034 51.7951 45.4821 52.3951 45.5247 53.2591C45.5661 54.1231 45.4607 54.8698 45.2087 55.5018C44.9967 56.0498 44.7554 56.5764 44.4821 57.0818C44.2074 57.5871 43.9221 58.0724 43.6287 58.5351C42.9114 59.7578 42.1434 60.9364 41.3221 62.0738C40.5007 63.2111 39.6674 64.3498 38.8261 65.4858C37.7727 66.9191 36.7194 68.3298 35.6661 69.7204C34.6127 71.1098 33.5381 72.5004 32.4434 73.8911C32.2741 74.0604 32.1274 74.2698 32.0007 74.5244L31.7474 75.2818L31.1794 76.7978C30.8007 77.8524 30.4847 78.8204 30.2314 79.7044C29.9781 80.5471 29.7887 81.3698 29.6634 82.1698C29.5781 82.6338 29.5367 83.1071 29.5367 83.5911C29.5367 84.0764 29.6407 84.5498 29.8527 85.0138C30.1461 85.7298 30.6314 85.9924 31.3061 85.8031C31.9794 85.6138 32.6861 85.2244 33.4221 84.6338C34.1594 84.0444 34.8447 83.4124 35.4767 82.7391C36.1087 82.0644 36.5287 81.6004 36.7407 81.3484L38.6994 79.1978C38.8261 79.0738 38.9621 78.9044 39.1101 78.6938C39.2567 78.4831 39.4261 78.3058 39.6154 78.1564C39.8047 78.0098 39.9954 77.9151 40.1847 77.8724C40.3741 77.8311 40.5527 77.9151 40.7207 78.1258C40.8887 78.3364 40.9314 78.5351 40.8487 78.7244C40.7634 78.9151 40.6581 79.0938 40.5314 79.2631C40.3207 79.4738 40.1314 79.6844 39.9634 79.8938C39.7941 80.1058 39.6261 80.3151 39.4581 80.5271L37.3727 82.7391C36.8247 83.3284 36.2661 83.9071 35.6981 84.4751C35.1287 85.0444 34.5287 85.5618 33.8967 86.0244C33.4327 86.3631 32.9687 86.6564 32.5061 86.9098C32.0421 87.1618 31.5167 87.2671 30.9261 87.2244C29.9567 87.2244 29.2621 86.8458 28.8407 86.0871C28.4194 85.3284 28.1874 84.5298 28.1461 83.6871C28.1034 82.6751 28.2194 81.6644 28.4941 80.6524C28.7674 79.6404 29.0727 78.6511 29.4101 77.6831C29.1981 77.9351 28.9994 78.1884 28.8101 78.4404C28.6207 78.6938 28.4194 78.9458 28.2101 79.1978C27.9981 79.4111 27.7461 79.5164 27.4514 79.5164C27.1554 79.5164 26.9661 79.3471 26.8821 79.0098C26.7981 78.7151 26.9034 78.4098 27.1981 78.0938C27.4927 77.7778 27.7247 77.5151 27.8927 77.3044L29.4101 75.3444C29.6207 75.1338 29.7994 74.9231 29.9474 74.7124C30.0941 74.5031 30.2727 74.2924 30.4847 74.0818C30.5687 73.9964 30.6527 73.8911 30.7367 73.7644C30.8207 73.6391 30.8847 73.5124 30.9261 73.3858C31.0101 73.3031 31.0634 73.1964 31.0847 73.0698C31.1061 72.9431 31.1581 72.8164 31.2434 72.6911C31.5367 71.9324 31.8207 71.1858 32.0954 70.4471C32.3687 69.7111 32.6741 68.9831 33.0127 68.2658C33.4754 67.1298 33.9287 65.9924 34.3701 64.8551C34.8127 63.7178 35.2874 62.6018 35.7927 61.5044C36.1301 60.7471 36.4874 59.9884 36.8661 59.2298C37.2461 58.4724 37.6247 57.7138 38.0047 56.9551C38.3407 56.2818 38.7087 55.6178 39.1101 54.9644C39.5101 54.3124 39.9634 53.6911 40.4687 53.1004C40.8887 52.5538 41.4687 52.0484 42.2061 51.5844C42.9434 51.1204 43.6701 51.0791 44.3861 51.4578Z" fill="white"/>
<path d="M42.5541 86.0239C43.2701 85.8146 43.9127 85.4972 44.4821 85.0759C45.0514 84.6559 45.5874 84.1919 46.0927 83.6866C46.6834 83.0972 47.2407 82.4439 47.7674 81.7266C48.2941 81.0106 48.7887 80.2946 49.2527 79.5786C49.4207 79.3679 49.5581 79.1586 49.6634 78.9452C49.7687 78.7359 49.8634 78.5266 49.9474 78.3159L50.5167 77.1132C50.6847 76.6932 50.8541 76.2919 51.0221 75.9132C51.1901 75.5346 51.3794 75.1546 51.5914 74.7759C51.9274 74.1866 52.2541 73.6066 52.5701 73.0386C52.8874 72.4692 53.2127 71.8906 53.5501 71.2999C52.5807 71.1732 51.6114 71.2172 50.6434 71.4279C49.6727 71.6386 48.7687 71.9532 47.9261 72.3746C47.0821 72.7959 46.3141 73.2812 45.6194 73.8292C44.9234 74.3759 44.2607 74.9652 43.6287 75.5972C42.8701 76.3146 42.1754 77.0932 41.5434 77.9359C40.9114 78.7786 40.3847 79.6839 39.9634 80.6532C39.7114 81.2426 39.4994 81.8959 39.3314 82.6106C39.1634 83.3292 39.1634 84.0239 39.3314 84.6972C39.4154 84.9932 39.5314 85.2666 39.6794 85.5186C39.8261 85.7719 40.0474 85.9612 40.3421 86.0879C40.6794 86.2146 41.0474 86.2559 41.4487 86.2146C41.8487 86.1719 42.2167 86.1079 42.5541 86.0239ZM59.9327 78.3159C60.1847 78.0612 60.4701 78.0212 60.7861 78.1879C61.1021 78.3572 61.2167 78.6092 61.1327 78.9452C61.0901 79.1146 61.0274 79.2532 60.9434 79.3572C60.8594 79.4626 60.7754 79.5572 60.6914 79.6412C60.3527 79.9799 60.0367 80.3266 59.7434 80.6839C59.4474 81.0426 59.1527 81.3906 58.8581 81.7266C58.1407 82.5279 57.4247 83.3292 56.7101 84.1279C55.9927 84.9292 55.2141 85.6666 54.3714 86.3399C53.7807 86.8452 53.0967 87.2572 52.3181 87.5719C51.5381 87.8879 50.7474 87.8572 49.9474 87.4772C49.0634 87.0986 48.5674 86.4772 48.4634 85.6132C48.3581 84.7506 48.3674 83.8972 48.4954 83.0532C47.9047 83.8132 47.2407 84.5399 46.5034 85.2346C45.7661 85.9292 44.9767 86.5092 44.1341 86.9719C43.4167 87.3106 42.6181 87.5306 41.7327 87.6359C40.8487 87.7412 40.0474 87.5626 39.3314 87.0986C38.7407 86.7186 38.3301 86.2146 38.0994 85.5812C37.8674 84.9492 37.7514 84.2972 37.7514 83.6226C37.7927 82.8239 37.9514 82.0439 38.2261 81.2839C38.4994 80.5266 38.8261 79.7892 39.2047 79.0732C39.6674 78.1052 40.2367 77.2092 40.9114 76.3866C41.5847 75.5652 42.3221 74.7972 43.1234 74.0812C43.7554 73.4919 44.4287 72.9332 45.1447 72.4066C45.8607 71.8812 46.6194 71.4279 47.4194 71.0479C48.3887 70.5839 49.4114 70.2372 50.4847 70.0052C51.5594 69.7732 52.6434 69.7199 53.7394 69.8466C53.9501 69.8879 54.1394 69.9212 54.3074 69.9412C54.4754 69.9639 54.6647 70.0159 54.8767 70.0999C55.1301 70.1852 55.2767 70.3212 55.3194 70.5106C55.3607 70.6999 55.3514 70.9119 55.2874 71.1426C55.2247 71.3746 55.1301 71.6066 55.0034 71.8359C54.8767 72.0692 54.7927 72.2479 54.7501 72.3746C54.3714 73.2186 53.9807 74.0399 53.5821 74.8386C53.1807 75.6399 52.7487 76.4612 52.2861 77.3039C52.1594 77.5559 52.0221 77.8092 51.8754 78.0612C51.7274 78.3159 51.5687 78.5679 51.4021 78.8212C51.2754 79.0732 51.1487 79.3159 51.0221 79.5479C50.8954 79.7786 50.7901 80.0426 50.7061 80.3359C50.5367 80.7999 50.3794 81.2732 50.2327 81.7586C50.0834 82.2439 49.9687 82.7386 49.8847 83.2439C49.8007 83.6226 49.7474 84.0332 49.7261 84.4759C49.7047 84.9186 49.8007 85.3292 50.0114 85.7092C50.1367 85.9612 50.3474 86.1412 50.6434 86.2452C50.9381 86.3506 51.2327 86.3626 51.5274 86.2759C51.8647 86.1932 52.1807 86.0772 52.4754 85.9292C52.7701 85.7812 53.0447 85.6039 53.2967 85.3919C53.6341 85.0986 53.9714 84.8026 54.3074 84.5066C54.6447 84.2132 54.9607 83.8972 55.2554 83.5586C56.0981 82.7186 56.8994 81.8532 57.6581 80.9692C58.4154 80.0839 59.1741 79.1986 59.9327 78.3159Z" fill="white"/>
<path d="M70.2957 61.9478C69.9584 61.7798 69.7677 61.5051 69.7264 61.1264C69.685 60.7478 69.7477 60.3998 69.917 60.0838C70.0837 59.7678 70.3264 59.5264 70.6437 59.3571C70.9597 59.1891 71.285 59.1891 71.6224 59.3571C71.9597 59.5678 72.149 59.8531 72.1917 60.2104C72.233 60.5678 72.169 60.9051 72.0024 61.2211C71.833 61.5371 71.5917 61.7798 71.2744 61.9478C70.9597 62.1158 70.6317 62.1158 70.2957 61.9478ZM71.8117 78.3158C72.065 78.5264 72.1384 78.7478 72.033 78.9784C71.9277 79.2104 71.8117 79.4318 71.685 79.6411L70.5477 80.9051C69.9997 81.5371 69.453 82.1704 68.905 82.8011C68.357 83.4331 67.789 84.0451 67.1997 84.6331C66.7357 85.0984 66.2717 85.5291 65.809 85.9291C65.345 86.3304 64.8397 86.6984 64.293 87.0358C63.913 87.2464 63.481 87.4371 62.997 87.6051C62.5117 87.7731 62.0584 87.7518 61.6384 87.5411C61.2997 87.3731 61.0704 87.1304 60.9424 86.8144C60.817 86.4984 60.7317 86.1718 60.6904 85.8358C60.605 85.1185 60.6477 84.4238 60.817 83.7491C60.985 83.0758 61.1744 82.4224 61.385 81.7891C61.7224 80.8211 62.0904 79.8731 62.4904 78.9464C62.8917 78.0211 63.3224 77.0731 63.7864 76.1024L60.9424 79.4518C60.605 79.8318 60.2584 79.8851 59.901 79.6104C59.5424 79.3371 59.5317 78.9691 59.869 78.5038L60.817 77.3678L65.1144 72.4384L66.5037 70.7944C66.7144 70.5011 66.9664 70.3744 67.2624 70.4158C67.473 70.5011 67.6304 70.6264 67.737 70.7944C67.841 70.9638 67.8517 71.1531 67.7677 71.3624C67.725 71.4904 67.673 71.6158 67.6104 71.7424C67.5464 71.8691 67.473 71.9958 67.389 72.1211C66.6717 73.4704 65.9877 74.8184 65.3344 76.1664C64.681 77.5144 64.0597 78.9038 63.4704 80.3371C63.2184 80.9278 62.9864 81.5278 62.7757 82.1371C62.565 82.7491 62.3744 83.3704 62.2077 84.0024C62.081 84.5504 62.0384 85.0558 62.081 85.5184C62.081 85.6038 62.0904 85.7504 62.1117 85.9611C62.133 86.1718 62.2077 86.2771 62.333 86.2771C62.501 86.3198 62.681 86.2985 62.8704 86.2145C63.0597 86.1291 63.2184 86.0464 63.345 85.9611C63.8504 85.6678 64.3557 85.3078 64.861 84.8878C65.3664 84.4238 65.841 83.9598 66.2824 83.4971C66.725 83.0331 67.177 82.5705 67.641 82.1065C68.4837 81.1798 69.285 80.2531 70.0437 79.3265C70.253 79.1145 70.517 78.8211 70.833 78.4411C71.149 78.0611 71.4744 78.0211 71.8117 78.3158Z" fill="white"/>
<path d="M97.7214 78.2505C97.9321 78.0411 98.1734 77.9571 98.4481 77.9985C98.7214 78.0411 98.9001 78.2105 98.9854 78.5038C99.0267 78.7158 99.0054 78.8731 98.9214 78.9785C98.8374 79.0838 98.7534 79.1985 98.6694 79.3265C98.5841 79.5371 98.4574 79.7358 98.2894 79.9265C98.1214 80.1145 97.9734 80.2945 97.8481 80.4638C97.3841 81.0545 96.9001 81.6651 96.3934 82.2958C95.8881 82.9278 95.3614 83.5185 94.8147 84.0651C94.2241 84.6558 93.5827 85.2451 92.8867 85.8345C92.1921 86.4251 91.4227 86.8678 90.5801 87.1625C89.9067 87.3731 89.2107 87.4251 88.4947 87.3198C87.7774 87.2158 87.3147 86.7625 87.1054 85.9611C87.0201 85.6238 86.9987 85.2771 87.0414 84.9185C87.0827 84.5598 87.1467 84.2131 87.2307 83.8758C87.3147 83.4118 87.4414 82.9585 87.6107 82.5171C87.7774 82.0745 87.9681 81.6225 88.1787 81.1585C88.5574 80.2318 88.9467 79.3158 89.3481 78.4091C89.7481 77.5025 90.1161 76.5878 90.4534 75.6611C90.7907 74.8185 91.0227 74.0598 91.1494 73.3865C91.1907 73.1745 91.2214 72.9438 91.2441 72.6905C91.2654 72.4385 91.1907 72.2065 91.0227 71.9958C90.8107 71.7838 90.5494 71.6905 90.2334 71.7118C89.9161 71.7318 89.6534 71.7838 89.4427 71.8691C89.1907 71.9118 88.9374 71.9851 88.6854 72.0905C88.4321 72.1958 88.2001 72.3105 87.9894 72.4385C86.7667 73.0691 85.6934 73.9011 84.7667 74.9345C83.8387 75.9665 82.9747 77.0291 82.1761 78.1251C81.3747 79.2225 80.6161 80.3265 79.9014 81.4438C79.1841 82.5585 78.4894 83.7078 77.8147 84.8878C77.6041 85.2238 77.4054 85.5811 77.2147 85.9611C77.0254 86.3398 76.8041 86.6985 76.5521 87.0358C76.4667 87.2038 76.3201 87.3305 76.1094 87.4145C75.8974 87.4998 75.6881 87.4998 75.4774 87.4145C75.0561 87.2465 74.9494 86.9505 75.1614 86.5291L75.6667 85.3918C76.2147 84.2971 76.7507 83.2131 77.2774 82.1371C77.8041 81.0625 78.3001 79.9798 78.7627 78.8838C79.0161 78.2505 79.2694 77.6105 79.5214 76.9558C79.7747 76.3025 79.9854 75.6185 80.1534 74.9011C80.2801 74.3958 80.3427 73.8705 80.3427 73.3225C80.3854 73.1118 80.3854 72.8905 80.3427 72.6598C80.3014 72.4278 80.1747 72.2478 79.9641 72.1211C79.7521 72.0371 79.5427 72.0265 79.3321 72.0905C79.1201 72.1545 78.9107 72.2265 78.7001 72.3105C78.1521 72.6905 77.6041 73.1118 77.0574 73.5758C76.3401 74.2065 75.6561 74.8811 75.0027 75.5971C74.3494 76.3145 73.7281 77.0291 73.1387 77.7451L72.1921 79.0091C72.0654 79.1785 71.9281 79.3158 71.7801 79.4198C71.6321 79.5265 71.4534 79.5371 71.2441 79.4518C71.0321 79.3678 70.8854 79.2305 70.8014 79.0425C70.7161 78.8518 70.7374 78.6718 70.8641 78.5038C70.9054 78.4198 70.9481 78.3465 70.9907 78.2825C71.0321 78.2198 71.0747 78.1465 71.1174 78.0611L73.0134 75.6611C73.4761 75.1545 73.9387 74.6598 74.4027 74.1745C74.8654 73.6918 75.3507 73.2185 75.8561 72.7531C76.3201 72.3345 76.7827 71.9531 77.2467 71.6158C77.7094 71.2785 78.2361 71.0051 78.8267 70.7945C79.4161 70.5838 79.9854 70.6051 80.5321 70.8571C81.0801 71.1105 81.4587 71.5745 81.6694 72.2478C81.7534 72.6278 81.7974 73.0171 81.7974 73.4171C81.7974 73.8185 81.7534 74.2065 81.6694 74.5865C81.5854 75.0918 81.4707 75.5971 81.3227 76.1025C81.1747 76.6091 80.9961 77.1131 80.7854 77.6198C81.5441 76.6091 82.3027 75.6611 83.0601 74.7771C83.6921 74.0598 84.3654 73.3865 85.0827 72.7531C85.7987 72.1211 86.5774 71.5745 87.4201 71.1105C88.0107 70.7745 88.7374 70.5211 89.6014 70.3518C90.4641 70.1851 91.2121 70.3518 91.8441 70.8571C92.1387 71.1105 92.3494 71.4171 92.4761 71.7745C92.6027 72.1331 92.6547 72.5105 92.6347 72.9118C92.6121 73.3131 92.5494 73.7131 92.4441 74.1118C92.3387 74.5131 92.2441 74.8598 92.1601 75.1545C91.8227 76.1665 91.4441 77.1465 91.0227 78.0945C90.6014 79.0425 90.1801 79.9998 89.7587 80.9691C89.5894 81.3905 89.4214 81.8011 89.2534 82.2011C89.0841 82.6025 88.9374 83.0331 88.8107 83.4971C88.7254 83.7918 88.6321 84.0971 88.5267 84.4131C88.4214 84.7278 88.3894 85.0558 88.4321 85.3918C88.4734 85.7291 88.6107 85.9198 88.8427 85.9611C89.0734 86.0025 89.3374 85.9931 89.6334 85.9291C89.9267 85.8665 90.2214 85.7718 90.5174 85.6451C90.8107 85.5185 91.0227 85.4145 91.1494 85.3291C91.8227 84.9078 92.4334 84.4345 92.9814 83.9065C93.5281 83.3811 94.0774 82.8238 94.6254 82.2318C95.1307 81.6438 95.6561 80.9798 96.2041 80.2425C96.7507 79.5051 97.2574 78.8411 97.7214 78.2505Z" fill="white"/>
<path d="M105.747 71.49C105.03 71.574 104.366 71.8367 103.756 72.2794C103.144 72.722 102.608 73.1954 102.144 73.7007C101.007 74.9647 100.038 76.462 99.2376 78.1874C100.543 77.8514 101.86 77.4087 103.188 76.8607C104.515 76.314 105.64 75.5554 106.568 74.586C107.158 73.9967 107.516 73.386 107.643 72.7527C107.726 72.1647 107.548 71.7847 107.106 71.6167C106.663 71.4487 106.21 71.4074 105.747 71.49ZM112.067 78.25C112.36 78.5047 112.423 78.7794 112.255 79.0727C112.086 79.3674 111.918 79.6207 111.75 79.8314L110.234 81.5367C109.77 82.002 109.316 82.454 108.875 82.8967C108.432 83.3394 107.959 83.7927 107.452 84.254C106.442 85.098 105.294 85.8767 104.008 86.5927C102.723 87.31 101.386 87.5834 99.9962 87.414C99.3216 87.33 98.7216 87.11 98.1949 86.75C97.6682 86.394 97.2576 85.898 96.9629 85.266C96.6256 84.55 96.4776 83.7807 96.5202 82.9594C96.5616 82.1367 96.6669 81.3487 96.8362 80.5887C97.2162 78.9887 97.8256 77.4514 98.6682 75.9767C99.5109 74.5034 100.543 73.218 101.766 72.122C102.271 71.6594 102.818 71.238 103.408 70.8567C103.998 70.4794 104.63 70.226 105.304 70.0994C106.02 69.9727 106.747 70.026 107.484 70.258C108.22 70.49 108.716 70.9847 108.97 71.742C109.136 72.334 109.136 72.8807 108.97 73.386C108.802 73.8914 108.559 74.3754 108.243 74.8394C107.927 75.302 107.548 75.7247 107.106 76.102C106.663 76.482 106.231 76.8194 105.81 77.114C105.094 77.578 104.356 77.966 103.598 78.2834C102.84 78.5994 102.06 78.8834 101.26 79.1354C101.007 79.222 100.755 79.2954 100.502 79.3567C100.248 79.4194 99.9962 79.4954 99.7442 79.578L98.9856 79.7687C98.9002 79.7687 98.8362 79.7794 98.7962 79.7994C98.7522 79.8207 98.6896 79.8314 98.6056 79.8314C98.5629 79.8314 98.5429 79.8727 98.5429 79.958C98.5429 80.042 98.5216 80.0834 98.4789 80.0834C98.1416 81.1807 97.9736 82.2327 97.9736 83.2434C98.0149 83.5807 98.0789 83.9394 98.1642 84.318C98.2469 84.6967 98.4162 85.034 98.6682 85.3287C99.1749 85.75 99.7002 85.962 100.248 85.962C100.838 86.046 101.428 85.9927 102.019 85.802C102.608 85.614 103.176 85.3927 103.724 85.1394C104.44 84.7194 105.136 84.2447 105.81 83.718C106.483 83.1914 107.136 82.6327 107.77 82.0434C108.148 81.706 108.516 81.338 108.875 80.938C109.232 80.5367 109.58 80.146 109.916 79.7687L111.055 78.378C111.35 77.998 111.687 77.958 112.067 78.25Z" fill="white"/>
<path d="M157.943 51.2681C158.025 51.3521 158.111 51.436 158.195 51.52C158.28 51.6054 158.363 51.816 158.448 52.1534C158.489 52.2787 158.5 52.396 158.48 52.5C158.459 52.6054 158.448 52.7427 158.448 52.9107C158.448 53.1227 158.385 53.4907 158.259 54.0174C158.133 54.5441 158.007 55.0187 157.879 55.4387C157.415 56.9974 156.837 58.5041 156.141 59.9574C155.447 61.4107 154.697 62.8321 153.899 64.2214C152.928 65.8654 151.897 67.4454 150.803 68.9614C149.705 70.4801 148.548 71.9534 147.327 73.3854C146.315 74.6067 145.261 75.7974 144.167 76.9561C143.071 78.1147 141.955 79.2427 140.817 80.3361C139.721 81.3907 138.595 82.4014 137.436 83.3707C136.277 84.34 135.087 85.2454 133.865 86.0881C132.856 86.7627 131.844 87.3107 130.833 87.7307C130.453 87.8987 130.064 88.0374 129.664 88.1414C129.263 88.2467 128.853 88.2774 128.431 88.2361C127.631 88.1521 127.093 87.8041 126.82 87.1934C126.545 86.5827 126.429 85.9401 126.472 85.2667C126.515 84.0454 126.725 82.8121 127.104 81.5681C127.483 80.3254 127.884 79.1361 128.304 77.9974C129.021 76.1014 129.768 74.2614 130.548 72.4694C131.328 70.6787 132.137 68.8787 132.981 67.0654L135.761 60.936L136.836 58.3454C137.004 57.9254 137.161 57.5147 137.309 57.1134C137.457 56.7134 137.552 56.2814 137.595 55.8187C137.721 54.8067 137.469 54.1427 136.836 53.8267C136.204 53.512 135.435 53.3854 134.529 53.4481C133.624 53.5121 132.717 53.6907 131.812 53.9854C130.907 54.2801 130.221 54.5534 129.759 54.8067C129.42 55.0187 129.095 55.2281 128.779 55.4387C128.464 55.6507 128.179 55.924 127.925 56.26C127.8 56.3867 127.693 56.576 127.611 56.8294C127.568 56.9974 127.547 57.1454 127.547 57.2707C127.547 57.3974 127.463 57.524 127.295 57.6507C127.083 57.736 126.883 57.756 126.693 57.7134C126.504 57.672 126.367 57.5454 126.283 57.3347C126.115 57.0814 126.115 56.7454 126.283 56.324C126.367 55.9867 126.525 55.6707 126.756 55.376C126.988 55.0814 127.251 54.828 127.547 54.6174C128.093 54.1547 128.685 53.7547 129.316 53.4161C129.948 53.0801 130.621 52.8067 131.339 52.5947C132.137 52.3427 132.971 52.1534 133.835 52.0267C134.697 51.9001 135.551 51.9427 136.395 52.1534C136.983 52.3214 137.509 52.5947 137.973 52.9747C138.436 53.3534 138.752 53.8587 138.921 54.4907C139.132 55.3334 139.111 56.156 138.859 56.956C138.605 57.756 138.309 58.5347 137.973 59.2934C137.256 61.0214 136.521 62.7067 135.761 64.3494C135.004 65.992 134.245 67.6574 133.487 69.3414C132.856 70.816 132.233 72.2694 131.623 73.7014C131.012 75.1334 130.412 76.588 129.821 78.0614C129.569 78.736 129.325 79.3987 129.095 80.052C128.863 80.7067 128.641 81.3907 128.431 82.1054C128.304 82.5707 128.179 83.0654 128.052 83.5921C127.925 84.1187 127.841 84.6334 127.8 85.14C127.8 85.392 127.809 85.676 127.831 85.992C127.852 86.3094 127.989 86.5507 128.243 86.7187C128.452 86.888 128.716 86.9401 129.032 86.8774C129.348 86.8147 129.633 86.7414 129.885 86.6574C130.348 86.4894 130.801 86.276 131.244 86.024C131.687 85.7707 132.117 85.5187 132.539 85.2667C133.129 84.8867 133.708 84.488 134.277 84.0654C134.845 83.6454 135.404 83.2027 135.952 82.7387C137.425 81.5587 138.827 80.3254 140.153 79.0427C141.48 77.7574 142.776 76.42 144.04 75.0294C145.471 73.4707 146.841 71.86 148.147 70.1947C149.453 68.5307 150.676 66.7707 151.812 64.9174C152.655 63.5707 153.445 62.18 154.183 60.7467C154.919 59.316 155.563 57.84 156.111 56.324C156.277 55.86 156.436 55.4067 156.584 54.964C156.732 54.5227 156.847 54.0707 156.931 53.6054C156.972 53.3961 157.016 53.1641 157.059 52.9107C157.099 52.6574 157.079 52.4281 156.995 52.2161C156.911 52.0481 156.825 51.868 156.743 51.6787C156.657 51.4894 156.699 51.3107 156.868 51.1414C156.995 51.016 157.173 50.9734 157.405 51.016C157.637 51.0574 157.816 51.1414 157.943 51.2681Z" fill="white"/>
<path d="M160.787 61.9478C160.449 61.7798 160.259 61.5051 160.217 61.1264C160.176 60.7478 160.239 60.3998 160.408 60.0838C160.576 59.7678 160.817 59.5264 161.135 59.3571C161.451 59.1891 161.776 59.1891 162.113 59.3571C162.451 59.5678 162.64 59.8531 162.683 60.2104C162.724 60.5678 162.66 60.9051 162.492 61.2211C162.324 61.5371 162.083 61.7798 161.765 61.9478C161.451 62.1158 161.124 62.1158 160.787 61.9478ZM162.304 78.3158C162.556 78.5264 162.629 78.7478 162.525 78.9784C162.419 79.2104 162.304 79.4318 162.177 79.6411L161.039 80.9051C160.491 81.5371 159.943 82.1704 159.396 82.8011C158.848 83.4331 158.28 84.0451 157.691 84.6331C157.225 85.0984 156.763 85.5291 156.3 85.9291C155.836 86.3304 155.329 86.6984 154.783 87.0358C154.404 87.2464 153.972 87.4371 153.487 87.6051C153.003 87.7731 152.549 87.7518 152.129 87.5411C151.792 87.3731 151.56 87.1304 151.433 86.8144C151.308 86.4984 151.223 86.1718 151.181 85.8358C151.096 85.1185 151.139 84.4238 151.308 83.7491C151.476 83.0758 151.665 82.4224 151.876 81.7891C152.212 80.8211 152.581 79.8731 152.981 78.9464C153.381 78.0211 153.815 77.0731 154.277 76.1024L151.433 79.4518C151.096 79.8318 150.749 79.8851 150.391 79.6104C150.033 79.3371 150.023 78.9691 150.36 78.5038L151.308 77.3678L155.604 72.4384L156.995 70.7944C157.205 70.5011 157.459 70.3744 157.753 70.4158C157.964 70.5011 158.121 70.6264 158.227 70.7944C158.332 70.9638 158.343 71.1531 158.259 71.3624C158.216 71.4904 158.164 71.6158 158.1 71.7424C158.037 71.8691 157.964 71.9958 157.879 72.1211C157.163 73.4704 156.479 74.8184 155.825 76.1664C155.172 77.5144 154.551 78.9038 153.961 80.3371C153.708 80.9278 153.477 81.5278 153.267 82.1371C153.055 82.7491 152.867 83.3704 152.699 84.0024C152.572 84.5504 152.529 85.0558 152.572 85.5184C152.572 85.6038 152.581 85.7504 152.603 85.9611C152.624 86.1718 152.699 86.2771 152.824 86.2771C152.992 86.3198 153.172 86.2985 153.361 86.2145C153.551 86.1291 153.708 86.0464 153.835 85.9611C154.341 85.6678 154.847 85.3078 155.352 84.8878C155.857 84.4238 156.331 83.9598 156.773 83.4971C157.216 83.0331 157.668 82.5705 158.133 82.1065C158.975 81.1798 159.775 80.2531 160.535 79.3265C160.744 79.1145 161.008 78.8211 161.323 78.4411C161.64 78.0611 161.965 78.0211 162.304 78.3158Z" fill="white"/>
<path d="M169.443 71.49C168.727 71.574 168.063 71.8367 167.453 72.2794C166.841 72.722 166.304 73.1954 165.841 73.7007C164.703 74.9647 163.735 76.462 162.935 78.1874C164.24 77.8514 165.557 77.4087 166.884 76.8607C168.211 76.314 169.337 75.5554 170.264 74.586C170.855 73.9967 171.212 73.386 171.339 72.7527C171.423 72.1647 171.244 71.7847 170.803 71.6167C170.359 71.4487 169.907 71.4074 169.443 71.49ZM175.763 78.25C176.057 78.5047 176.12 78.7794 175.952 79.0727C175.783 79.3674 175.615 79.6207 175.447 79.8314L173.929 81.5367C173.467 82.002 173.013 82.454 172.572 82.8967C172.129 83.3394 171.655 83.7927 171.149 84.254C170.137 85.098 168.989 85.8767 167.705 86.5927C166.419 87.31 165.083 87.5834 163.693 87.414C163.019 87.33 162.417 87.11 161.892 86.75C161.364 86.394 160.953 85.898 160.659 85.266C160.321 84.55 160.175 83.7807 160.217 82.9594C160.257 82.1367 160.364 81.3487 160.532 80.5887C160.912 78.9887 161.523 77.4514 162.365 75.9767C163.208 74.5034 164.24 73.218 165.463 72.122C165.968 71.6594 166.515 71.238 167.105 70.8567C167.693 70.4794 168.327 70.226 169.001 70.0994C169.716 69.9727 170.443 70.026 171.181 70.258C171.917 70.49 172.413 70.9847 172.665 71.742C172.833 72.334 172.833 72.8807 172.665 73.386C172.497 73.8914 172.255 74.3754 171.939 74.8394C171.624 75.302 171.244 75.7247 170.803 76.102C170.359 76.482 169.927 76.8194 169.507 77.114C168.789 77.578 168.053 77.966 167.295 78.2834C166.536 78.5994 165.756 78.8834 164.957 79.1354C164.703 79.222 164.451 79.2954 164.197 79.3567C163.945 79.4194 163.693 79.4954 163.44 79.578L162.681 79.7687C162.596 79.7687 162.533 79.7794 162.492 79.7994C162.449 79.8207 162.387 79.8314 162.303 79.8314C162.26 79.8314 162.24 79.8727 162.24 79.958C162.24 80.042 162.217 80.0834 162.176 80.0834C161.839 81.1807 161.671 82.2327 161.671 83.2434C161.712 83.5807 161.775 83.9394 161.86 84.318C161.944 84.6967 162.113 85.034 162.365 85.3287C162.871 85.75 163.397 85.962 163.945 85.962C164.535 86.046 165.124 85.9927 165.715 85.802C166.304 85.614 166.872 85.3927 167.42 85.1394C168.137 84.7194 168.832 84.2447 169.507 83.718C170.18 83.1914 170.833 82.6327 171.465 82.0434C171.845 81.706 172.212 81.338 172.572 80.938C172.928 80.5367 173.276 80.146 173.613 79.7687L174.751 78.378C175.045 77.998 175.383 77.958 175.763 78.25Z" fill="white"/>
<path d="M185.115 61.9478C184.777 61.7798 184.587 61.5051 184.545 61.1264C184.504 60.7478 184.567 60.3998 184.736 60.0838C184.904 59.7678 185.145 59.5264 185.463 59.3571C185.779 59.1891 186.104 59.1891 186.441 59.3571C186.779 59.5678 186.968 59.8531 187.011 60.2104C187.052 60.5678 186.988 60.9051 186.82 61.2211C186.652 61.5371 186.411 61.7798 186.093 61.9478C185.779 62.1158 185.452 62.1158 185.115 61.9478ZM186.632 78.3158C186.884 78.5264 186.957 78.7478 186.853 78.9784C186.747 79.2104 186.632 79.4318 186.505 79.6411L185.367 80.9051C184.819 81.5371 184.271 82.1704 183.724 82.8011C183.176 83.4331 182.608 84.0451 182.019 84.6331C181.553 85.0984 181.091 85.5291 180.628 85.9291C180.164 86.3304 179.657 86.6984 179.111 87.0358C178.732 87.2464 178.3 87.4371 177.815 87.6051C177.331 87.7731 176.877 87.7518 176.457 87.5411C176.12 87.3731 175.888 87.1304 175.761 86.8144C175.636 86.4984 175.551 86.1718 175.509 85.8358C175.424 85.1185 175.467 84.4238 175.636 83.7491C175.804 83.0758 175.993 82.4224 176.204 81.7891C176.54 80.8211 176.909 79.8731 177.309 78.9464C177.709 78.0211 178.143 77.0731 178.605 76.1024L175.761 79.4518C175.424 79.8318 175.077 79.8851 174.719 79.6104C174.361 79.3371 174.351 78.9691 174.688 78.5038L175.636 77.3678L179.932 72.4384L181.323 70.7944C181.533 70.5011 181.787 70.3744 182.081 70.4158C182.292 70.5011 182.449 70.6264 182.555 70.7944C182.66 70.9638 182.671 71.1531 182.587 71.3624C182.544 71.4904 182.492 71.6158 182.428 71.7424C182.365 71.8691 182.292 71.9958 182.207 72.1211C181.491 73.4704 180.807 74.8184 180.153 76.1664C179.5 77.5144 178.879 78.9038 178.289 80.3371C178.036 80.9278 177.805 81.5278 177.595 82.1371C177.383 82.7491 177.195 83.3704 177.027 84.0024C176.9 84.5504 176.857 85.0558 176.9 85.5184C176.9 85.6038 176.909 85.7504 176.931 85.9611C176.952 86.1718 177.027 86.2771 177.152 86.2771C177.32 86.3198 177.5 86.2985 177.689 86.2145C177.879 86.1291 178.036 86.0464 178.163 85.9611C178.669 85.6678 179.175 85.3078 179.68 84.8878C180.185 84.4238 180.659 83.9598 181.101 83.4971C181.544 83.0331 181.996 82.5705 182.461 82.1065C183.303 81.1798 184.103 80.2531 184.863 79.3265C185.072 79.1145 185.336 78.8211 185.651 78.4411C185.968 78.0611 186.293 78.0211 186.632 78.3158Z" fill="white"/>
<path d="M202.555 77.9354C202.723 77.9354 202.871 77.998 202.997 78.126C203.124 78.25 203.208 78.4087 203.249 78.5994C203.292 78.79 203.228 78.9687 203.061 79.1354L202.428 79.894L200.217 82.358C199.627 83.0754 199.016 83.7714 198.384 84.4447C197.752 85.1194 197.079 85.75 196.361 86.3407C195.899 86.7194 195.424 87.0767 194.94 87.414C194.456 87.7514 193.917 87.9634 193.329 88.046C192.864 88.0887 192.475 88.0247 192.16 87.8567C191.844 87.6887 191.591 87.446 191.401 87.13C191.212 86.814 191.085 86.466 191.023 86.0874C190.96 85.7087 190.948 85.3287 190.991 84.95C191.159 83.9394 191.507 82.97 192.033 82.0434C192.56 81.118 193.096 80.2327 193.644 79.3887C193.939 78.9247 194.224 78.4634 194.497 77.998C194.771 77.5354 195.056 77.05 195.352 76.5447C195.52 76.2087 195.708 75.8287 195.919 75.4074C196.131 74.9874 196.213 74.586 196.173 74.206C196.131 73.9967 195.857 73.902 195.352 73.922C194.845 73.9447 194.508 73.954 194.34 73.954C193.917 73.9114 193.528 73.8287 193.171 73.7007C192.812 73.5754 192.549 73.282 192.381 72.8167C191.664 73.7007 190.937 74.5554 190.2 75.3754C189.464 76.198 188.737 77.0287 188.021 77.8727L186.82 79.1354C186.651 79.3047 186.481 79.4314 186.315 79.5167C186.145 79.5994 185.956 79.578 185.747 79.4527C185.493 79.326 185.367 79.158 185.367 78.946C185.367 78.7367 185.451 78.526 185.62 78.3154C185.788 78.1047 185.968 77.9047 186.156 77.714C186.347 77.5234 186.504 77.3674 186.631 77.2407C187.263 76.5674 187.883 75.8927 188.495 75.218C189.105 74.5447 189.705 73.85 190.296 73.1327L192.317 70.6687L193.265 69.594C193.476 69.2994 193.749 69.226 194.087 69.3727C194.424 69.5207 194.572 69.7634 194.529 70.0994C194.487 70.31 194.404 70.5207 194.277 70.7327C194.151 70.9434 194.044 71.1527 193.961 71.362C193.917 71.49 193.876 71.6074 193.835 71.7114C193.792 71.8167 193.771 71.9327 193.771 72.058C193.729 72.2274 193.717 72.334 193.74 72.374C193.76 72.4167 193.876 72.4594 194.087 72.5007C194.508 72.5434 194.917 72.5434 195.319 72.5007C195.719 72.4594 196.109 72.522 196.488 72.69C196.952 72.8594 197.268 73.1327 197.436 73.5127C197.604 73.8914 197.647 74.2927 197.563 74.7127C197.395 75.5554 197.057 76.3994 196.552 77.2407C196.3 77.7447 196.025 78.2314 195.731 78.6927C195.435 79.158 195.139 79.6207 194.845 80.0834C194.381 80.842 193.917 81.6234 193.456 82.422C192.991 83.2234 192.655 84.066 192.444 84.95C192.403 85.202 192.391 85.518 192.413 85.898C192.433 86.2767 192.612 86.51 192.949 86.5927C193.16 86.678 193.381 86.6567 193.613 86.5287C193.844 86.4034 194.044 86.298 194.213 86.214C194.887 85.794 195.499 85.3074 196.045 84.7607C196.593 84.2127 197.14 83.6447 197.689 83.054L202.049 78.1874C202.217 78.0207 202.387 77.9354 202.555 77.9354Z" fill="white"/>
<path d="M205.02 86.0239C205.736 85.8146 206.378 85.4972 206.946 85.0759C207.516 84.6559 208.052 84.1919 208.558 83.6866C209.148 83.0972 209.706 82.4439 210.233 81.7266C210.76 81.0106 211.254 80.2946 211.717 79.5786C211.885 79.3679 212.022 79.1586 212.129 78.9452C212.233 78.7359 212.328 78.5266 212.413 78.3159L212.982 77.1132C213.15 76.6932 213.318 76.2919 213.488 75.9132C213.656 75.5346 213.845 75.1546 214.056 74.7759C214.392 74.1866 214.718 73.6066 215.036 73.0386C215.352 72.4692 215.677 71.8906 216.014 71.2999C215.046 71.1732 214.077 71.2172 213.108 71.4279C212.138 71.6386 211.233 71.9532 210.39 72.3746C209.548 72.7959 208.778 73.2812 208.085 73.8292C207.389 74.3759 206.725 74.9652 206.094 75.5972C205.334 76.3146 204.641 77.0932 204.008 77.9359C203.377 78.7786 202.849 79.6839 202.429 80.6532C202.176 81.2426 201.965 81.8959 201.797 82.6106C201.628 83.3292 201.628 84.0239 201.797 84.6972C201.881 84.9932 201.996 85.2666 202.145 85.5186C202.292 85.7719 202.512 85.9612 202.808 86.0879C203.145 86.2146 203.513 86.2559 203.913 86.2146C204.314 86.1719 204.681 86.1079 205.02 86.0239ZM222.397 78.3159C222.65 78.0612 222.936 78.0212 223.25 78.1879C223.566 78.3572 223.682 78.6092 223.598 78.9452C223.556 79.1146 223.492 79.2532 223.409 79.3572C223.324 79.4626 223.24 79.5572 223.156 79.6412C222.818 79.9799 222.501 80.3266 222.208 80.6839C221.913 81.0426 221.617 81.3906 221.324 81.7266C220.606 82.5279 219.89 83.3292 219.174 84.1279C218.457 84.9292 217.678 85.6666 216.836 86.3399C216.246 86.8452 215.561 87.2572 214.782 87.5719C214.002 87.8879 213.213 87.8572 212.413 87.4772C211.529 87.0986 211.033 86.4772 210.929 85.6132C210.822 84.7506 210.833 83.8972 210.96 83.0532C210.369 83.8132 209.706 84.5399 208.969 85.2346C208.232 85.9292 207.441 86.5092 206.6 86.9719C205.882 87.3106 205.082 87.5306 204.198 87.6359C203.313 87.7412 202.512 87.5626 201.797 87.0986C201.206 86.7186 200.796 86.2146 200.564 85.5812C200.332 84.9492 200.216 84.2972 200.216 83.6226C200.258 82.8239 200.416 82.0439 200.69 81.2839C200.964 80.5266 201.29 79.7892 201.67 79.0732C202.133 78.1052 202.702 77.2092 203.377 76.3866C204.049 75.5652 204.788 74.7972 205.589 74.0812C206.22 73.4919 206.893 72.9332 207.61 72.4066C208.325 71.8812 209.085 71.4279 209.885 71.0479C210.854 70.5839 211.876 70.2372 212.95 70.0052C214.025 69.7732 215.108 69.7199 216.205 69.8466C216.414 69.8879 216.604 69.9212 216.773 69.9412C216.941 69.9639 217.13 70.0159 217.342 70.0999C217.596 70.1852 217.742 70.3212 217.784 70.5106C217.825 70.6999 217.817 70.9119 217.753 71.1426C217.689 71.3746 217.596 71.6066 217.469 71.8359C217.342 72.0692 217.257 72.2479 217.214 72.3746C216.836 73.2186 216.446 74.0399 216.048 74.8386C215.646 75.6399 215.214 76.4612 214.752 77.3039C214.625 77.5559 214.488 77.8092 214.34 78.0612C214.192 78.3159 214.034 78.5679 213.866 78.8212C213.74 79.0732 213.613 79.3159 213.488 79.5479C213.361 79.7786 213.256 80.0426 213.17 80.3359C213.002 80.7999 212.844 81.2732 212.697 81.7586C212.549 82.2439 212.434 82.7386 212.349 83.2439C212.265 83.6226 212.213 84.0332 212.192 84.4759C212.169 84.9186 212.265 85.3292 212.477 85.7092C212.602 85.9612 212.813 86.1412 213.108 86.2452C213.402 86.3506 213.698 86.3626 213.992 86.2759C214.329 86.1932 214.646 86.0772 214.94 85.9292C215.234 85.7812 215.509 85.6039 215.762 85.3919C216.1 85.0986 216.436 84.8026 216.773 84.5066C217.109 84.2132 217.426 83.8972 217.721 83.5586C218.564 82.7186 219.365 81.8532 220.122 80.9692C220.881 80.0839 221.64 79.1986 222.397 78.3159Z" fill="white"/>
<path fill-rule="evenodd" clip-rule="evenodd" d="M132.013 16.578C132.292 17.318 132.581 18.0047 132.811 18.7113C133.041 19.4193 133.243 20.142 133.407 20.8673C133.573 21.586 133.683 22.314 133.816 23.0287C133.819 22.9713 133.825 22.902 133.825 22.8327C133.825 21.182 133.825 19.5327 133.828 17.882C133.828 17.7553 133.8 17.6607 133.688 17.5887C133.352 17.362 133.021 17.1193 132.675 16.9033C132.48 16.7807 132.256 16.6953 132.013 16.578ZM89.9507 22.2167C90.3253 20.106 90.9507 18.074 91.9013 16.0993C91.8 16.1327 91.748 16.1447 91.7013 16.1633C91.0653 16.4433 90.5267 16.8647 90.0107 17.3207C89.9173 17.4007 89.928 17.4927 89.928 17.5913L89.9427 22.0793C89.9427 22.1247 89.948 22.17 89.9507 22.2167ZM102.696 45.878C102.691 45.8927 102.685 45.9113 102.68 45.9273C102.771 45.9807 102.863 46.034 102.956 46.0833C103.737 46.482 104.521 46.8833 105.3 47.2807C105.636 47.4527 105.972 47.6273 106.308 47.8007C106.997 48.1567 107.688 48.51 108.383 48.862C108.443 48.8913 108.537 48.906 108.599 48.8833C109.219 48.65 109.82 48.3713 110.339 47.946C110.383 47.91 110.417 47.8607 110.472 47.8007C107.745 47.6327 105.164 46.9887 102.696 45.878ZM90.0213 29.4393C90.0053 29.442 89.9893 29.442 89.9747 29.4447V29.7433C89.9747 31.1247 89.972 32.5047 89.9747 33.8847C89.9747 34.0847 89.9347 34.3047 90.0027 34.478C90.0653 34.6353 90.256 34.742 90.388 34.87C90.3987 34.8807 90.4093 34.8927 90.4227 34.9007C90.8827 35.31 91.36 35.7007 91.928 35.9607C92.0293 36.006 92.1333 36.0447 92.2867 36.1047C91.164 33.9673 90.4147 31.7633 90.0213 29.4393ZM133.792 28.6993C133.42 31.1367 132.708 33.45 131.599 35.6567C131.839 35.6327 132.107 35.5287 132.377 35.378C132.82 35.1327 133.213 34.8287 133.607 34.518C133.745 34.406 133.8 34.286 133.8 34.106C133.792 32.41 133.792 30.7167 133.792 29.018V28.6993ZM100.745 44.9353C100.756 44.9193 100.764 44.902 100.771 44.8887C98.0053 43.2807 95.6933 41.1713 93.7947 38.5887C93.7427 38.8407 93.7013 39.0807 93.696 39.3233C93.6853 39.9713 93.7813 40.61 93.9067 41.2447C93.932 41.386 93.9867 41.4767 94.12 41.5433C95.052 42.0167 95.98 42.5007 96.912 42.982C97.6853 43.378 98.4613 43.7713 99.2373 44.166C99.612 44.362 99.9867 44.5567 100.365 44.75C100.489 44.8167 100.617 44.8727 100.745 44.9353ZM109.159 49.2633C110.201 49.7967 111.232 50.3273 112.259 50.8513C112.743 50.5967 113.213 50.354 113.68 50.0993C114.147 49.8433 114.628 49.618 115.084 49.3433C115.063 49.31 115.06 49.3033 115.055 49.2967C114.977 49.2633 114.901 49.226 114.823 49.194C114.237 48.9327 113.669 48.6433 113.216 48.1713C113.104 48.0593 113.016 47.8927 112.88 47.8367C112.745 47.7807 112.563 47.8367 112.404 47.8367C112.041 47.8367 111.68 47.8407 111.319 47.8327C111.208 47.8327 111.136 47.8647 111.065 47.9567C110.852 48.242 110.581 48.474 110.273 48.6567C109.92 48.866 109.547 49.054 109.159 49.2633ZM109.037 2.20599C109.136 2.24732 109.207 2.27533 109.273 2.30466C109.576 2.43799 109.883 2.55799 110.18 2.70732C110.576 2.90066 110.94 3.14866 111.235 3.47932C111.323 3.57799 111.409 3.61132 111.535 3.61132C111.94 3.61132 112.349 3.62065 112.759 3.62865C112.839 3.62999 112.904 3.61133 112.961 3.54733C113.261 3.19799 113.639 2.94199 114.047 2.74332C114.443 2.55132 114.847 2.38332 115.253 2.20332C115.161 2.08065 115.003 2.04466 114.873 1.97399C114.044 1.53133 113.211 1.09399 112.385 0.648659C112.253 0.575326 112.156 0.580659 112.027 0.648659C111.207 1.07666 110.383 1.49399 109.563 1.91932C109.393 2.00466 109.227 2.10066 109.037 2.20599ZM89.9853 35.2553C89.98 35.3353 89.9747 35.3873 89.9747 35.4393C89.98 36.7113 89.9867 37.9847 89.9853 39.254C89.9853 39.394 90.0413 39.4553 90.156 39.5127C90.9453 39.914 91.732 40.3233 92.5187 40.7233C92.7787 40.8567 93.04 40.986 93.3253 41.1273C93.32 41.0353 93.3187 40.9687 93.3107 40.9033C93.268 40.5313 93.2067 40.1567 93.1827 39.7807C93.1493 39.2127 93.172 38.6433 93.3733 38.098C93.4093 38.002 93.3827 37.9393 93.336 37.8647C93.1387 37.5513 92.9347 37.242 92.7533 36.922C92.664 36.7633 92.56 36.6847 92.368 36.6553C91.8333 36.57 91.368 36.3087 90.9347 35.9953C90.6173 35.766 90.3187 35.5153 89.9853 35.2553ZM130.576 41.114C130.644 41.082 130.688 41.0673 130.727 41.05C131.169 40.8127 131.609 40.5807 132.055 40.346C132.579 40.0673 133.101 39.7887 133.625 39.5127C133.735 39.4553 133.8 39.3927 133.8 39.25C133.792 37.906 133.795 36.5647 133.792 35.222C133.792 35.182 133.779 35.1433 133.768 35.0807C133.721 35.114 133.696 35.13 133.672 35.146C133.373 35.3513 133.089 35.5727 132.781 35.762C132.357 36.0207 131.904 36.218 131.396 36.2407C131.305 36.2447 131.268 36.2953 131.224 36.3673C131.049 36.682 130.868 36.9967 130.675 37.3033C130.601 37.4193 130.612 37.5207 130.644 37.6473C130.711 37.9113 130.781 38.1847 130.805 38.458C130.873 39.1993 130.781 39.9313 130.653 40.6607C130.631 40.8033 130.604 40.9447 130.576 41.114ZM93.1067 10.41C93.016 10.4527 92.9453 10.482 92.8773 10.518C91.94 10.9993 91.0053 11.486 90.0653 11.9633C89.9453 12.0247 89.9253 12.1033 89.928 12.2207V16.478C89.928 16.5313 89.9427 16.5873 89.9507 16.658C90.0987 16.5447 90.2187 16.45 90.3413 16.3593C90.88 15.95 91.4533 15.6087 92.1307 15.482C92.232 15.4633 92.264 15.39 92.3053 15.318C92.508 14.9553 92.7107 14.5913 92.9227 14.234C92.9893 14.122 93.0293 14.026 92.956 13.898C92.904 13.8073 92.8827 13.6953 92.8573 13.59C92.7133 12.9953 92.748 12.398 92.8387 11.8047C92.9093 11.3487 93.0107 10.9007 93.1067 10.41ZM133.819 16.994C133.82 16.9087 133.825 16.8647 133.825 16.818C133.825 15.2913 133.82 13.7647 133.828 12.2367C133.828 12.094 133.784 12.0153 133.659 11.9473C132.748 11.4687 131.839 10.982 130.923 10.4967C130.88 10.474 130.831 10.458 130.759 10.4247C130.768 10.518 130.773 10.5833 130.787 10.65C130.943 11.3887 131.06 12.1327 131.04 12.8913C131.029 13.31 130.983 13.7207 130.813 14.1073C130.768 14.2113 130.773 14.2887 130.831 14.386C131.099 14.862 131.365 15.3407 131.62 15.8233C131.672 15.9247 131.729 15.9727 131.839 15.9953C132.305 16.0927 132.724 16.302 133.128 16.546C133.352 16.6793 133.565 16.8273 133.819 16.994ZM130.232 38.0513C126.128 43.8273 120.617 47.078 113.589 47.7967C113.68 47.878 113.74 47.938 113.805 47.99C114.352 48.4353 114.989 48.7007 115.639 48.9513C115.735 48.9887 115.816 48.9687 115.901 48.922C116.147 48.7887 116.391 48.6607 116.636 48.5313C117.445 48.1033 118.256 47.674 119.065 47.2447C120.125 46.6793 121.185 46.1167 122.248 45.5513C123.063 45.1167 123.877 44.6833 124.696 44.25C125.641 43.7473 126.589 43.2473 127.535 42.7473C128.3 42.338 129.068 41.9313 129.839 41.5233C129.915 41.4873 129.959 41.434 129.977 41.354C129.992 41.294 130 41.234 130.013 41.174C130.18 40.398 130.313 39.6167 130.303 38.8193C130.3 38.5753 130.261 38.3327 130.232 38.0513ZM130.399 13.6433C130.42 13.586 130.437 13.5447 130.445 13.5007C130.54 13.082 130.521 12.6567 130.495 12.234C130.456 11.5727 130.313 10.9273 130.167 10.2793C130.131 10.1273 130.06 10.0287 129.915 9.95532C129.44 9.71666 128.975 9.46332 128.503 9.21532C127.576 8.72332 126.653 8.22865 125.729 7.73932C125.063 7.38465 124.393 7.03399 123.727 6.67799C122.667 6.11399 121.607 5.54866 120.547 4.98466C119.873 4.62599 119.199 4.27132 118.524 3.91399C117.732 3.49266 116.932 3.06999 116.141 2.64066C116.013 2.57266 115.904 2.56466 115.773 2.61399C115.601 2.68199 115.423 2.72866 115.248 2.79399C114.743 2.98199 114.248 3.19799 113.803 3.50866C113.745 3.54999 113.691 3.59666 113.625 3.64866C120.768 4.39666 126.331 7.73932 130.399 13.6433ZM94.0347 9.29399C94.1173 9.26599 94.1587 9.25799 94.1987 9.23666C94.3413 9.16332 94.4827 9.08599 94.6253 9.01132C95.6587 8.47932 96.6933 7.94733 97.7267 7.41666L100.743 5.86199C101.784 5.32599 102.823 4.78866 103.865 4.25266C105.041 3.64866 106.221 3.04599 107.399 2.43932C107.445 2.41666 107.492 2.38732 107.563 2.34866C107.485 2.32332 107.44 2.30332 107.388 2.29132C106.211 2.00999 105.021 1.80999 103.819 1.68199C102.756 1.56866 101.691 1.47932 100.625 1.40332C99.7733 1.34332 98.92 1.32732 98.0653 1.28066C97.868 1.27132 97.7453 1.33266 97.672 1.51399C97.664 1.53399 97.6493 1.55399 97.6387 1.57399C96.8773 2.94199 96.156 4.32599 95.4947 5.74332C95.0373 6.72599 94.604 7.72199 94.2267 8.74199C94.164 8.91133 94.1067 9.08466 94.0347 9.29399ZM129.899 9.34866C129.875 9.25132 129.873 9.20066 129.855 9.15132C129.691 8.63932 129.524 8.12466 129.347 7.61666C128.617 5.50999 127.707 3.48332 126.745 1.47532C126.672 1.32732 126.581 1.27532 126.423 1.28199C125.685 1.31932 124.945 1.33666 124.211 1.38066C123.432 1.42466 122.659 1.47133 121.885 1.54733C120.636 1.66333 119.391 1.81532 118.159 2.04999C117.701 2.13532 117.245 2.23666 116.789 2.32999C116.787 2.34599 116.784 2.36466 116.781 2.38066C121.141 4.69533 125.5 7.01266 129.899 9.34866ZM98.7427 36.8807C100.805 37.4087 102.765 38.1633 104.617 39.2033C106.464 40.2327 108.125 41.51 109.664 42.958C109.552 42.4553 109.417 41.9633 109.308 41.47C109.199 40.982 109.099 40.4927 109.021 39.9967C108.94 39.4967 108.873 38.994 108.828 38.49C108.784 37.9847 108.761 37.4767 108.751 36.9687C108.737 36.4607 108.732 35.95 108.756 35.4447C108.776 34.9447 108.823 34.4473 108.88 33.9527C108.94 33.45 109.019 32.9487 109.104 32.45C109.188 31.958 109.292 31.474 109.388 30.982C106.377 33.942 102.813 35.8593 98.7427 36.8807ZM111.929 44.9753C112.724 43.1247 113.284 41.2713 113.568 39.33C113.852 37.3993 113.844 35.4727 113.552 33.5447C113.261 31.6113 112.699 29.766 111.904 27.9473C111.823 28.05 111.771 28.114 111.721 28.1833C111.263 28.8353 110.989 29.57 110.763 30.326C110.492 31.2327 110.325 32.162 110.201 33.102C110.084 33.9873 110.021 34.8753 109.995 35.766C109.977 36.4113 109.995 37.0593 110.024 37.706C110.052 38.3487 110.099 38.994 110.161 39.6367C110.271 40.734 110.475 41.8153 110.813 42.866C110.997 43.446 111.227 44.01 111.573 44.518C111.672 44.6633 111.787 44.7967 111.929 44.9753ZM110.36 25.3433C110.313 25.2593 110.287 25.2047 110.256 25.154C109.36 23.7367 108.268 22.486 107.016 21.378C105.519 20.0513 103.863 18.966 102.047 18.1193C100.284 17.2967 98.4453 16.722 96.5133 16.4647C96.1987 16.4247 95.8853 16.3753 95.5293 16.378C95.68 16.6327 95.808 16.862 95.948 17.0807C96.5213 17.9633 97.216 18.742 97.9747 19.4713C98.628 20.1033 99.3227 20.6887 100.049 21.234C101.355 22.21 102.735 23.062 104.199 23.778C105.115 24.226 106.049 24.6167 107.024 24.914C107.888 25.1767 108.768 25.3673 109.675 25.3807C109.896 25.3833 110.115 25.3567 110.36 25.3433ZM116.469 49.2233C117.855 49.642 119.216 49.9073 120.592 50.126C122.537 50.4353 124.489 50.6433 126.461 50.77C127.763 47.9767 128.94 45.1633 129.764 42.2167C129.751 42.206 129.735 42.1953 129.721 42.186C125.32 44.5233 120.92 46.8593 116.469 49.2233ZM126.311 15.1953C125.753 15.05 125.193 14.9193 124.639 14.7567C124.084 14.594 123.535 14.414 122.992 14.214C122.445 14.01 121.907 13.786 121.375 13.542C120.852 13.2993 120.336 13.034 119.833 12.7527C119.331 12.47 118.833 12.1687 118.355 11.8487C117.875 11.5313 117.404 11.1913 116.951 10.8353C116.489 10.4753 116.044 10.094 115.609 9.70599C115.185 9.32732 114.781 8.92732 114.336 8.50466C114.472 8.96066 114.599 9.36199 114.713 9.77132C114.828 10.1847 114.932 10.6033 115.029 11.0233C115.12 11.438 115.199 11.8513 115.265 12.27C115.336 12.6927 115.401 13.1193 115.445 13.5473C115.492 13.9673 115.521 14.39 115.541 14.8113C115.563 15.234 115.576 15.658 115.573 16.0807C115.571 16.5113 115.555 16.942 115.527 17.3727C115.497 17.794 115.456 18.2153 115.401 18.6353C115.349 19.0607 115.276 19.4873 115.211 19.9113C115.149 20.322 115.037 20.7207 114.969 21.1847C116.579 19.6407 118.313 18.37 120.237 17.3673C122.161 16.362 124.193 15.6647 126.311 15.1953ZM128.508 33.2393C127.096 28.7727 127.027 24.294 128.289 19.7393C127.737 20.27 127.237 20.7753 126.708 21.2393C126.175 21.7033 125.62 22.1473 125.047 22.562C124.477 22.9767 123.883 23.3713 123.271 23.7287C122.664 24.0913 122.035 24.4247 121.396 24.722C120.756 25.0207 120.095 25.2833 119.428 25.5233C118.768 25.7633 118.095 25.9607 117.425 26.1753C121.811 27.4553 125.5 29.8033 128.508 33.2393ZM83.6307 25.742C84.7507 27.8767 88.6493 33.3447 89.44 33.8713V33.6087C89.4347 31.9273 89.4307 30.246 89.428 28.5647C89.4227 26.55 89.4307 24.5367 89.4253 22.5233C89.42 21.05 89.404 19.5767 89.3933 18.1047C89.3933 18.054 89.3853 18.0047 89.3773 17.9407C87.5947 19.6313 84.92 23.502 83.6307 25.742ZM97.524 50.7753C100.972 50.514 104.401 50.1527 107.759 49.1847C107.563 49.0207 94.328 42.2353 94.1613 42.2033C94.1693 43.054 96.432 48.8327 97.524 50.7753ZM128.795 35.7967C128.711 35.6487 128.653 35.534 128.589 35.4273C127.925 34.378 127.123 33.45 126.216 32.602C125.659 32.0807 125.079 31.586 124.477 31.1247C122.904 29.93 121.219 28.93 119.409 28.1433C117.888 27.4847 116.328 26.9753 114.664 26.854C114.237 26.8247 113.808 26.826 113.344 26.8833C115.12 29.37 117.232 31.446 119.844 32.9953C122.592 34.6233 125.584 35.4873 128.795 35.7967ZM95.6827 18.7913C95.8627 19.45 96.0627 20.1033 96.2187 20.7687C96.3733 21.4247 96.5027 22.09 96.6013 22.758C96.704 23.4353 96.7813 24.1153 96.8187 24.7967C96.852 25.4727 96.8467 26.154 96.82 26.8287C96.792 27.5113 96.7347 28.1953 96.6493 28.8727C96.5627 29.542 96.4373 30.2087 96.2973 30.87C96.156 31.5287 95.972 32.1793 95.808 32.834C97.3333 31.2273 99 29.81 100.888 28.662C102.779 27.5113 104.813 26.6967 106.94 26.0727C104.761 25.3993 102.693 24.502 100.781 23.2673C98.8627 22.026 97.1907 20.5047 95.6827 18.7913ZM113.92 29.6873C114.084 30.3327 114.271 30.974 114.412 31.6247C114.552 32.286 114.667 32.9527 114.756 33.6233C114.841 34.286 114.904 34.9527 114.929 35.618C114.959 36.2953 114.959 36.9767 114.92 37.654C114.885 38.318 114.813 38.9847 114.716 39.646C114.617 40.3127 114.487 40.9793 114.336 41.6353C114.191 42.278 114.003 42.9167 113.831 43.5513C115.412 41.8513 117.172 40.3833 119.161 39.19C121.144 38.006 123.268 37.162 125.503 36.5647C120.935 35.45 117.092 33.138 113.92 29.6873ZM134.388 18.1833C134.373 18.1927 134.355 18.2033 134.339 18.214C134.36 23.4047 134.311 28.5953 134.333 33.838C135.328 32.898 136.167 31.8953 136.977 30.87C138.276 29.226 139.48 27.5153 140.615 25.7433C140.555 25.65 140.5 25.5647 140.445 25.4847C139.641 24.326 138.816 23.1847 137.937 22.0807C136.948 20.83 135.907 19.6233 134.761 18.5127C134.641 18.398 134.516 18.294 134.388 18.1833ZM112.008 6.54999C111.977 6.59666 111.956 6.61933 111.943 6.64866C111.508 7.61666 111.12 8.60599 110.811 9.62332C110.5 10.6487 110.261 11.6873 110.104 12.7487C109.997 13.4713 109.931 14.198 109.901 14.9273C109.873 15.6953 109.901 16.4647 109.969 17.234C110.035 17.962 110.133 18.6847 110.273 19.4007C110.628 21.182 111.216 22.89 111.977 24.5393C112.005 24.5967 112.044 24.65 112.087 24.7193C112.308 24.4993 112.475 24.2713 112.625 24.0287C113.141 23.2033 113.453 22.294 113.691 21.3593C114.104 19.726 114.265 18.0593 114.3 16.382C114.32 15.4487 114.284 14.5193 114.204 13.59C114.115 12.554 113.967 11.5287 113.732 10.5153C113.5 9.51666 113.196 8.54199 112.716 7.62599C112.521 7.25132 112.305 6.88732 112.008 6.54999ZM109.751 22.3647C109.076 20.0513 108.711 17.706 108.735 15.3073C108.756 12.898 109.211 10.562 109.985 8.26599C109.935 8.28066 109.917 8.28066 109.907 8.28999C109.544 8.61132 109.188 8.94199 108.819 9.25532C107.923 10.006 107.032 10.766 106.115 11.494C104.579 12.7113 102.863 13.5967 100.997 14.198C99.764 14.594 98.5133 14.922 97.2613 15.242C97.1907 15.2593 97.1173 15.2807 97.0467 15.302C99.4947 15.77 101.816 16.5593 103.985 17.7753C106.152 18.9927 108.041 20.554 109.751 22.3647ZM110.959 26.8207C110.696 26.8207 110.443 26.8033 110.193 26.822C109.044 26.9087 107.92 27.122 106.816 27.4433C105.099 27.9407 103.467 28.63 101.907 29.4993C100.076 30.522 98.3747 31.7193 96.928 33.2527C96.284 33.9353 95.7187 34.6713 95.284 35.5047C95.1907 35.6833 95.1173 35.8753 95.0293 36.0753C95.0987 36.0887 95.136 36.1047 95.172 36.102C95.4013 36.0807 95.6307 36.0567 95.86 36.0393C96.9587 35.9473 98.0413 35.758 99.112 35.4927C100.68 35.1047 102.18 34.5393 103.612 33.7807C105.325 32.8753 106.863 31.7247 108.243 30.3673C108.748 29.8727 109.211 29.334 109.685 28.8073C110.213 28.2207 110.661 27.5793 110.959 26.8207ZM113.3 25.4447C113.396 25.4527 113.456 25.4633 113.516 25.462C113.816 25.4527 114.115 25.4527 114.415 25.43C115.669 25.3273 116.896 25.0593 118.092 24.6793C119.492 24.234 120.831 23.6513 122.117 22.9513C123.995 21.93 125.727 20.7087 127.224 19.174C127.928 18.4553 128.552 17.6753 129.055 16.8047C129.177 16.594 129.281 16.3727 129.393 16.1513C129.347 16.1353 129.333 16.1273 129.319 16.1273C128.753 16.1847 128.183 16.2313 127.62 16.3047C125.232 16.61 122.956 17.2847 120.816 18.3953C119.199 19.2367 117.735 20.2887 116.407 21.534C115.565 22.326 114.789 23.182 114.076 24.094C113.759 24.4967 113.541 24.9527 113.3 25.4447ZM130.644 36.318C132.653 32.7033 133.571 28.874 133.404 24.794C133.279 21.734 132.529 18.8273 131.136 16.054C131.099 16.1193 131.079 16.1513 131.065 16.182C130.86 16.6487 130.656 17.114 130.456 17.5807C129.768 19.1433 129.256 20.7607 128.94 22.4393C128.748 23.4793 128.649 24.526 128.604 25.5807C128.589 26.0087 128.628 26.4393 128.631 26.8727C128.636 27.466 128.699 28.0527 128.771 28.6407C128.893 29.6593 129.084 30.6633 129.368 31.6473C129.787 33.0967 130.196 34.5473 130.552 36.0153C130.571 36.1033 130.604 36.1873 130.644 36.318ZM112.396 47.2993C121.063 47.0847 127.448 41.8047 130.219 36.9767C130.213 36.974 130.204 36.966 130.201 36.966C129.901 37.0073 129.607 37.05 129.311 37.094C127.355 37.39 125.44 37.8407 123.576 38.5073C121.761 39.158 120.044 39.9993 118.456 41.0993C116.732 42.2913 115.245 43.7313 113.972 45.3953C113.587 45.8967 113.185 46.3847 112.787 46.8753C112.677 47.0113 112.552 47.134 112.396 47.2993ZM93.568 37.234C94.5573 38.8153 95.708 40.186 97.016 41.4233C98.3227 42.6633 99.7707 43.7207 101.347 44.5967C102.923 45.4767 104.584 46.13 106.323 46.606C108.276 47.1407 111.139 47.3953 111.631 47.2673C111.584 47.2167 111.541 47.174 111.503 47.1273C111.289 46.8847 111.063 46.654 110.871 46.394C109.907 45.0993 108.841 43.8927 107.633 42.8233C106.161 41.526 104.541 40.4553 102.765 39.6247C101.139 38.8647 99.4453 38.318 97.6853 37.9753C96.732 37.7887 95.7733 37.6353 94.82 37.466C94.42 37.394 94.0187 37.318 93.568 37.234ZM130.407 14.8153C130.412 14.7993 130.423 14.7833 130.432 14.7687C129.516 13.1953 128.401 11.77 127.12 10.4793C125.823 9.17799 124.383 8.06199 122.805 7.12732C121.229 6.19532 119.568 5.47533 117.813 4.97133C116.057 4.46466 114.268 4.18466 112.42 4.14066C112.761 4.54466 113.092 4.90999 113.393 5.29665C113.964 6.02332 114.513 6.76599 115.139 7.44732C115.771 8.14599 116.437 8.80466 117.153 9.41532C117.959 10.1033 118.811 10.7207 119.713 11.2727C121.084 12.1167 122.54 12.7753 124.065 13.2847C124.987 13.5913 125.932 13.8153 126.877 14.022C127.961 14.258 129.04 14.514 130.12 14.7607C130.213 14.782 130.311 14.7967 130.407 14.8153ZM111.732 4.12732C109.147 4.15266 106.699 4.59133 104.328 5.47133C101.967 6.34866 99.8227 7.60066 97.8987 9.22732C95.9773 10.8567 94.3827 12.758 93.1013 14.9793C93.1827 14.966 93.2107 14.9633 93.2373 14.9567C94.7533 14.606 96.2653 14.25 97.7813 13.9073C99.9427 13.4193 102 12.666 103.925 11.558C106.041 10.338 107.871 8.77532 109.448 6.91132C110.211 6.00732 110.865 5.01666 111.732 4.12732ZM93.316 36.8353C93.3853 36.5993 93.4373 36.418 93.4893 36.234C93.9507 34.5913 94.4307 32.95 94.8733 31.302C95.2813 29.7847 95.5787 28.246 95.6333 26.6713C95.6747 25.4993 95.6333 24.3327 95.464 23.17C95.24 21.6167 94.8467 20.1087 94.284 18.6487C94.0373 17.9993 93.764 17.3633 93.5027 16.7207C93.316 16.2527 93.1307 15.7807 92.94 15.298C91.5547 17.69 89.904 21.9353 90.3 27.338C90.5467 30.7233 91.5547 33.8713 93.316 36.8353ZM101.745 5.98732C101.688 6.00466 101.628 6.01266 101.573 6.04199C101.355 6.15132 101.136 6.26866 100.917 6.38066C99.9067 6.90199 98.8907 7.42466 97.8773 7.94466C96.5707 8.61799 95.2653 9.29399 93.956 9.96066C93.8253 10.0287 93.756 10.114 93.724 10.2527C93.628 10.662 93.5053 11.07 93.4227 11.4833C93.3187 12.01 93.256 12.546 93.3107 13.086C93.3227 13.2087 93.352 13.3273 93.38 13.4887C93.4427 13.4033 93.48 13.3647 93.508 13.3207C94.5213 11.8207 95.7013 10.4633 97.0493 9.25799C98.432 8.01799 99.9427 6.96066 101.592 6.10599C101.649 6.07799 101.693 6.02332 101.743 5.98332C101.82 5.95532 101.901 5.93799 101.975 5.90332C102.808 5.50199 103.653 5.13399 104.529 4.83132C106.347 4.20332 108.213 3.80466 110.136 3.67132C110.279 3.66066 110.42 3.64599 110.563 3.63266C110.495 3.53132 110.42 3.47266 110.339 3.41932C109.781 3.04999 109.161 2.81799 108.535 2.60466C108.407 2.55932 108.297 2.55399 108.185 2.62865C108.141 2.66065 108.089 2.67666 108.041 2.70199C106.647 3.42332 105.253 4.14599 103.857 4.86466C103.211 5.19532 102.565 5.52332 101.925 5.85532C101.86 5.88732 101.805 5.94199 101.745 5.98732ZM141.237 25.7553C140.373 27.13 139.451 28.4673 138.485 29.7727C137.756 30.766 136.995 31.7367 136.183 32.6633C135.885 33.0047 135.576 33.338 135.261 33.6687C134.995 33.9473 134.724 34.218 134.445 34.4833C134.355 34.5647 134.325 34.6433 134.325 34.7607C134.328 35.4713 134.325 36.1807 134.325 36.8887C134.325 37.77 134.323 38.65 134.328 39.5287C134.333 39.69 134.281 39.7687 134.136 39.8447C132.935 40.4753 131.743 41.118 130.544 41.7527C130.435 41.8073 130.385 41.8833 130.36 41.994C129.891 43.8807 129.224 45.706 128.483 47.4953C127.977 48.7033 127.428 49.8927 126.896 51.0873C126.868 51.1607 126.828 51.226 126.784 51.31C126.595 51.3033 126.404 51.3033 126.213 51.2833C125.041 51.1727 123.871 51.0673 122.699 50.9447C121.235 50.7887 119.781 50.566 118.344 50.242C117.557 50.066 116.779 49.8433 116 49.6287C115.863 49.5913 115.761 49.5993 115.631 49.6673C114.696 50.1713 113.756 50.666 112.816 51.1633C112.633 51.2607 112.448 51.3593 112.263 51.4553C111.604 51.1167 110.945 50.782 110.289 50.4433C109.704 50.146 109.12 49.85 108.54 49.55C108.459 49.502 108.396 49.5287 108.323 49.55C107.633 49.7407 106.951 49.9527 106.256 50.122C105.125 50.3967 103.98 50.594 102.825 50.7487C101.98 50.8687 101.133 50.9753 100.281 51.0633C99.404 51.154 98.5213 51.214 97.6387 51.286C97.492 51.2993 97.3467 51.306 97.1933 51.3167C97.044 51.0247 96.896 50.7487 96.7653 50.4633C96.3027 49.4447 95.8333 48.4353 95.3907 47.4087C94.8853 46.242 94.432 45.058 94.0547 43.8407C93.8627 43.2167 93.6933 42.5873 93.5213 41.9527C93.492 41.854 93.4507 41.798 93.36 41.7527C92.7347 41.438 92.112 41.114 91.4867 40.794C90.8227 40.4513 90.1587 40.1087 89.4867 39.766C89.4827 39.7153 89.472 39.6607 89.472 39.6087C89.4613 38.2993 89.4507 36.9887 89.44 35.678C89.44 35.3993 89.4373 35.1207 89.4427 34.8433C89.4427 34.7447 89.4147 34.6713 89.344 34.5993C88.0467 33.254 86.9293 31.762 85.8653 30.2313C84.9227 28.878 84.0373 27.4873 83.196 26.07C83.1307 25.9633 83.0707 25.8567 83 25.734C83.1853 25.4273 83.368 25.114 83.5573 24.81C84.5267 23.2607 85.54 21.742 86.6493 20.2887C87.3053 19.4327 87.9827 18.5967 88.7347 17.8233C88.9253 17.63 89.12 17.442 89.3027 17.2473C89.352 17.1953 89.3707 17.1167 89.3933 17.0473C89.404 17.0047 89.3933 16.9553 89.3933 16.91V12.1407V11.7167C89.5947 11.6113 89.7973 11.5007 90.0027 11.3953C90.94 10.914 91.88 10.434 92.8187 9.94999C92.9893 9.86466 93.1987 9.80466 93.316 9.66866C93.432 9.53132 93.4587 9.31799 93.5213 9.13532C93.896 8.04199 94.3387 6.97399 94.8253 5.92866C95.232 5.05399 95.652 4.18599 96.092 3.32999C96.5107 2.51532 96.9667 1.71799 97.4013 0.912657C97.472 0.779323 97.56 0.720655 97.7133 0.739322C97.8573 0.756655 98.0053 0.752655 98.152 0.757988C98.852 0.788655 99.552 0.80999 100.251 0.848656C100.948 0.887323 101.649 0.927324 102.344 0.993991C103.164 1.06999 103.983 1.16332 104.797 1.27266C105.833 1.41532 106.868 1.59132 107.875 1.87532C108.175 1.96066 108.412 1.92466 108.68 1.78199C109.792 1.19666 110.915 0.632655 112.027 0.0539887C112.167 -0.0180113 112.273 -0.0180113 112.409 0.0539887C113.44 0.608655 114.477 1.15665 115.511 1.70332C115.652 1.77932 115.792 1.86466 115.94 1.93132C116.003 1.95799 116.089 1.96599 116.156 1.94999C117.18 1.68199 118.213 1.47665 119.259 1.33265C119.975 1.23399 120.693 1.14066 121.412 1.06999C122.201 0.992657 122.989 0.933992 123.781 0.880659C124.409 0.837992 125.04 0.815327 125.672 0.785993C126.047 0.769993 126.425 0.755325 126.8 0.741992C126.855 0.739325 126.907 0.74999 126.977 0.755323C127.188 1.18999 127.415 1.61932 127.612 2.06199C128.161 3.30066 128.713 4.53932 129.232 5.78999C129.74 7.01266 130.175 8.26599 130.516 9.54599C130.552 9.67399 130.625 9.73932 130.727 9.79399C131.133 10.006 131.535 10.218 131.935 10.4313C132.729 10.854 133.527 11.2753 134.341 11.7113V11.9767V17.2287C134.341 17.3487 134.352 17.4393 134.459 17.5327C135.649 18.554 136.693 19.7167 137.693 20.922C138.753 22.206 139.748 23.5393 140.693 24.9087C140.875 25.174 141.055 25.4407 141.237 25.7087V25.7553Z" fill="#EBD3B3"/>
</svg>
